M48
;DRILL file {KiCad (2017-12-24 revision 570866557)-makepkg} date Sun Jan  7 21:57:06 2018
;FORMAT={3:3/ absolute / metric / suppress leading zeros}
FMAT,2
METRIC,TZ
T1C0.762
T2C0.864
T3C0.900
T4C1.000
T5C1.200
%
G90
G05
M71
T1
X135890Y-78740
X135890Y-83820
X140970Y-78740
X140970Y-83820
X143510Y-78740
X143510Y-83820
X146050Y-78740
X146050Y-83820
X148590Y-78740
X148590Y-83820
T2
X130810Y-68072
X130810Y-82550
T3
X138430Y-66040
X138430Y-68580
X146050Y-66040
X146050Y-68580
T4
X153670Y-65786
X153670Y-82550
T5
X127000Y-90170
X130500Y-90170
X134000Y-90170
X137500Y-90170
X141000Y-90170
X144500Y-90170
X148000Y-90170
X151500Y-90170
X155000Y-90170
X158500Y-90170
T0
M30
