%TF.GenerationSoftware,KiCad,Pcbnew,(5.0.0-rc2-dev-720-g9704891c8)*%
%TF.CreationDate,2018-06-11T17:03:39-04:00*%
%TF.ProjectId,LatchRelay,4C6174636852656C61792E6B69636164,rev?*%
%TF.SameCoordinates,Original*%
%TF.FileFunction,Copper,L1,Top,Signal*%
%TF.FilePolarity,Positive*%
%FSLAX46Y46*%
G04 Gerber Fmt 4.6, Leading zero omitted, Abs format (unit mm)*
G04 Created by KiCad (PCBNEW (5.0.0-rc2-dev-720-g9704891c8)) date Mon Jun 11 17:03:39 2018*
%MOMM*%
%LPD*%
G01*
G04 APERTURE LIST*
%ADD10C,1.524000*%
%ADD11C,1.371600*%
%ADD12R,2.400000X2.400000*%
%ADD13C,2.400000*%
%ADD14C,1.800000*%
%ADD15R,1.800000X1.800000*%
%ADD16C,0.500000*%
%ADD17C,1.250000*%
G04 APERTURE END LIST*
D10*
X153670000Y-65786000D03*
X153670000Y-82550000D03*
D11*
X130810000Y-68072000D03*
X130810000Y-82550000D03*
D12*
X127000000Y-90170000D03*
D13*
X130500000Y-90170000D03*
X134000000Y-90170000D03*
X137500000Y-90170000D03*
X141000000Y-90170000D03*
X144500000Y-90170000D03*
X148000000Y-90170000D03*
X151500000Y-90170000D03*
X155000000Y-90170000D03*
X158500000Y-90170000D03*
D10*
X135890000Y-78740000D03*
X140970000Y-78740000D03*
X143510000Y-78740000D03*
X146050000Y-78740000D03*
X148590000Y-78740000D03*
X135890000Y-83820000D03*
X140970000Y-83820000D03*
X143510000Y-83820000D03*
X146050000Y-83820000D03*
X148590000Y-83820000D03*
D14*
X138430000Y-68580000D03*
D15*
X138430000Y-66040000D03*
X146050000Y-66040000D03*
D14*
X146050000Y-68580000D03*
D16*
X130810000Y-68072000D02*
X130810000Y-67310000D01*
X132080000Y-66040000D02*
X138430000Y-66040000D01*
X130810000Y-67310000D02*
X132080000Y-66040000D01*
X130810000Y-82550000D02*
X130810000Y-89860000D01*
X130810000Y-89860000D02*
X130500000Y-90170000D01*
X130810000Y-82550000D02*
X134620000Y-82550000D01*
X134620000Y-82550000D02*
X135890000Y-83820000D01*
X153670000Y-65786000D02*
X146304000Y-65786000D01*
X146304000Y-65786000D02*
X146050000Y-66040000D01*
X148000000Y-90170000D02*
X148000000Y-88220000D01*
X148000000Y-88220000D02*
X153670000Y-82550000D01*
X153670000Y-82550000D02*
X149860000Y-78740000D01*
X149860000Y-78740000D02*
X148590000Y-78740000D01*
X144500000Y-90170000D02*
X144500000Y-89815000D01*
X144500000Y-89815000D02*
X148590000Y-85725000D01*
X148590000Y-85725000D02*
X148590000Y-83820000D01*
X144500000Y-90170000D02*
X144780000Y-90170000D01*
X148590000Y-83820000D02*
X148590000Y-82550000D01*
X138430000Y-76200000D02*
X146050000Y-68580000D01*
X138430000Y-80010000D02*
X138430000Y-76200000D01*
X139700000Y-81280000D02*
X138430000Y-80010000D01*
X147320000Y-81280000D02*
X139700000Y-81280000D01*
X148590000Y-82550000D02*
X147320000Y-81280000D01*
X127000000Y-90170000D02*
X127000000Y-82550000D01*
X130810000Y-78740000D02*
X135890000Y-78740000D01*
X127000000Y-82550000D02*
X130810000Y-78740000D01*
X138430000Y-68580000D02*
X138430000Y-72390000D01*
X135890000Y-74930000D02*
X135890000Y-78740000D01*
X138430000Y-72390000D02*
X135890000Y-74930000D01*
D17*
X140970000Y-78740000D02*
X140970000Y-78486000D01*
X140970000Y-78486000D02*
X146812000Y-72644000D01*
X146812000Y-72644000D02*
X152908000Y-72644000D01*
X152908000Y-72644000D02*
X159512000Y-79248000D01*
X159512000Y-79248000D02*
X159512000Y-89158000D01*
X159512000Y-89158000D02*
X158500000Y-90170000D01*
X143510000Y-78740000D02*
X143510000Y-78486000D01*
X143510000Y-78486000D02*
X147320000Y-74676000D01*
X147320000Y-74676000D02*
X152400000Y-74676000D01*
X152400000Y-74676000D02*
X157480000Y-79756000D01*
X157480000Y-79756000D02*
X157480000Y-84328000D01*
X157480000Y-84328000D02*
X155000000Y-86808000D01*
X155000000Y-86808000D02*
X155000000Y-90170000D01*
X146050000Y-78740000D02*
X147955000Y-76835000D01*
X151500000Y-87768000D02*
X151500000Y-90170000D01*
X155575000Y-83693000D02*
X151500000Y-87768000D01*
X155575000Y-80645000D02*
X155575000Y-83693000D01*
X151765000Y-76835000D02*
X155575000Y-80645000D01*
X147955000Y-76835000D02*
X151765000Y-76835000D01*
X151500000Y-90170000D02*
X151500000Y-89800000D01*
X134000000Y-90170000D02*
X134000000Y-90155000D01*
X134000000Y-90155000D02*
X140335000Y-83820000D01*
X140335000Y-83820000D02*
X140970000Y-83820000D01*
X137500000Y-90170000D02*
X137500000Y-90084000D01*
X137500000Y-90084000D02*
X141732000Y-85852000D01*
X142240000Y-85852000D02*
X143510000Y-84582000D01*
X141732000Y-85852000D02*
X142240000Y-85852000D01*
X143510000Y-84582000D02*
X143510000Y-83820000D01*
X146050000Y-83820000D02*
X146050000Y-85120000D01*
X146050000Y-85120000D02*
X141000000Y-90170000D01*
M02*
