M48
;DRILL file {KiCad (5.0.0-rc2-dev-720-g9704891c8)} date Mon Jun 11 17:03:44 2018
;FORMAT={-:-/ absolute / inch / decimal}
FMAT,2
INCH,TZ
T1C0.0300
T2C0.0340
T3C0.0354
T4C0.0394
T5C0.0472
%
G90
G05
M72
T1
X5.35Y-3.1
X5.35Y-3.3
X5.55Y-3.1
X5.55Y-3.3
X5.65Y-3.1
X5.65Y-3.3
X5.75Y-3.1
X5.75Y-3.3
X5.85Y-3.1
X5.85Y-3.3
T2
X5.15Y-2.68
X5.15Y-3.25
T3
X5.45Y-2.6
X5.45Y-2.7
X5.75Y-2.6
X5.75Y-2.7
T4
X6.05Y-2.59
X6.05Y-3.25
T5
X5.Y-3.55
X5.1378Y-3.55
X5.2756Y-3.55
X5.4134Y-3.55
X5.5512Y-3.55
X5.689Y-3.55
X5.8268Y-3.55
X5.9646Y-3.55
X6.1024Y-3.55
X6.2402Y-3.55
T0
M30
