G04 #@! TF.GenerationSoftware,KiCad,Pcbnew,(2017-12-24 revision 570866557)-makepkg*
G04 #@! TF.CreationDate,2018-01-07T21:56:49-05:00*
G04 #@! TF.ProjectId,LatchRelay,4C6174636852656C61792E6B69636164,rev?*
G04 #@! TF.SameCoordinates,Original*
G04 #@! TF.FileFunction,Legend,Top*
G04 #@! TF.FilePolarity,Positive*
%FSLAX46Y46*%
G04 Gerber Fmt 4.6, Leading zero omitted, Abs format (unit mm)*
G04 Created by KiCad (PCBNEW (2017-12-24 revision 570866557)-makepkg) date Sun Jan  7 21:56:49 2018*
%MOMM*%
%LPD*%
G01*
G04 APERTURE LIST*
%ADD10C,0.152400*%
%ADD11C,0.120000*%
%ADD12C,0.150000*%
G04 APERTURE END LIST*
D10*
X150761700Y-68884800D02*
X150761700Y-79451200D01*
X150761700Y-79451200D02*
X156578300Y-79451200D01*
X156578300Y-79451200D02*
X156578300Y-68884800D01*
X156578300Y-68884800D02*
X150761700Y-68884800D01*
X128574800Y-70434200D02*
X128574800Y-80187800D01*
X128574800Y-80187800D02*
X133045200Y-80187800D01*
X133045200Y-80187800D02*
X133045200Y-70434200D01*
X133045200Y-70434200D02*
X128574800Y-70434200D01*
D11*
X125150000Y-92270000D02*
X160350000Y-92270000D01*
X125150000Y-93370000D02*
X160350000Y-93370000D01*
X125150000Y-93870000D02*
X125150000Y-86670000D01*
X125150000Y-86670000D02*
X160350000Y-86670000D01*
X160350000Y-86670000D02*
X160350000Y-93870000D01*
X128750000Y-93370000D02*
X128750000Y-93770000D01*
X132250000Y-93370000D02*
X132250000Y-93770000D01*
X135750000Y-93370000D02*
X135750000Y-93770000D01*
X139250000Y-93370000D02*
X139250000Y-93770000D01*
X142750000Y-93370000D02*
X142750000Y-93770000D01*
X146250000Y-93370000D02*
X146250000Y-93770000D01*
X149750000Y-93370000D02*
X149750000Y-93770000D01*
X153250000Y-93370000D02*
X153250000Y-93770000D01*
X156750000Y-93370000D02*
X156750000Y-93770000D01*
X124910000Y-92020000D02*
X124910000Y-94110000D01*
X124910000Y-94110000D02*
X127000000Y-94110000D01*
D12*
X134874000Y-77724000D02*
X134874000Y-84836000D01*
X149606000Y-77724000D02*
X134874000Y-77724000D01*
X149606000Y-84836000D02*
X149606000Y-77724000D01*
X134874000Y-84836000D02*
X149606000Y-84836000D01*
D11*
X137350000Y-65250000D02*
X137031000Y-65250000D01*
X139829000Y-65250000D02*
X139510000Y-65250000D01*
X137349039Y-68992713D02*
G75*
G02X137350000Y-65626670I1080961J1682713D01*
G01*
X139510961Y-68992713D02*
G75*
G03X139510000Y-65626670I-1080961J1682713D01*
G01*
X137349276Y-69553242D02*
G75*
G02X137031251Y-65250000I1080724J2243242D01*
G01*
X139510724Y-69553242D02*
G75*
G03X139828749Y-65250000I-1080724J2243242D01*
G01*
X147130724Y-69553242D02*
G75*
G03X147448749Y-65250000I-1080724J2243242D01*
G01*
X144969276Y-69553242D02*
G75*
G02X144651251Y-65250000I1080724J2243242D01*
G01*
X147130961Y-68992713D02*
G75*
G03X147130000Y-65626670I-1080961J1682713D01*
G01*
X144969039Y-68992713D02*
G75*
G02X144970000Y-65626670I1080961J1682713D01*
G01*
X147449000Y-65250000D02*
X147130000Y-65250000D01*
X144970000Y-65250000D02*
X144651000Y-65250000D01*
D12*
X154122380Y-74334666D02*
X153646190Y-74668000D01*
X154122380Y-74906095D02*
X153122380Y-74906095D01*
X153122380Y-74525142D01*
X153170000Y-74429904D01*
X153217619Y-74382285D01*
X153312857Y-74334666D01*
X153455714Y-74334666D01*
X153550952Y-74382285D01*
X153598571Y-74429904D01*
X153646190Y-74525142D01*
X153646190Y-74906095D01*
X154122380Y-73382285D02*
X154122380Y-73953714D01*
X154122380Y-73668000D02*
X153122380Y-73668000D01*
X153265238Y-73763238D01*
X153360476Y-73858476D01*
X153408095Y-73953714D01*
X153122380Y-74882285D02*
X153122380Y-75358476D01*
X153598571Y-75406095D01*
X153550952Y-75358476D01*
X153503333Y-75263238D01*
X153503333Y-75025142D01*
X153550952Y-74929904D01*
X153598571Y-74882285D01*
X153693809Y-74834666D01*
X153931904Y-74834666D01*
X154027142Y-74882285D01*
X154074761Y-74929904D01*
X154122380Y-75025142D01*
X154122380Y-75263238D01*
X154074761Y-75358476D01*
X154027142Y-75406095D01*
X153122380Y-74215619D02*
X153122380Y-74120380D01*
X153170000Y-74025142D01*
X153217619Y-73977523D01*
X153312857Y-73929904D01*
X153503333Y-73882285D01*
X153741428Y-73882285D01*
X153931904Y-73929904D01*
X154027142Y-73977523D01*
X154074761Y-74025142D01*
X154122380Y-74120380D01*
X154122380Y-74215619D01*
X154074761Y-74310857D01*
X154027142Y-74358476D01*
X153931904Y-74406095D01*
X153741428Y-74453714D01*
X153503333Y-74453714D01*
X153312857Y-74406095D01*
X153217619Y-74358476D01*
X153170000Y-74310857D01*
X153122380Y-74215619D01*
X153122380Y-73263238D02*
X153122380Y-73168000D01*
X153170000Y-73072761D01*
X153217619Y-73025142D01*
X153312857Y-72977523D01*
X153503333Y-72929904D01*
X153741428Y-72929904D01*
X153931904Y-72977523D01*
X154027142Y-73025142D01*
X154074761Y-73072761D01*
X154122380Y-73168000D01*
X154122380Y-73263238D01*
X154074761Y-73358476D01*
X154027142Y-73406095D01*
X153931904Y-73453714D01*
X153741428Y-73501333D01*
X153503333Y-73501333D01*
X153312857Y-73453714D01*
X153217619Y-73406095D01*
X153170000Y-73358476D01*
X153122380Y-73263238D01*
X131262380Y-75477666D02*
X130786190Y-75811000D01*
X131262380Y-76049095D02*
X130262380Y-76049095D01*
X130262380Y-75668142D01*
X130310000Y-75572904D01*
X130357619Y-75525285D01*
X130452857Y-75477666D01*
X130595714Y-75477666D01*
X130690952Y-75525285D01*
X130738571Y-75572904D01*
X130786190Y-75668142D01*
X130786190Y-76049095D01*
X130357619Y-75096714D02*
X130310000Y-75049095D01*
X130262380Y-74953857D01*
X130262380Y-74715761D01*
X130310000Y-74620523D01*
X130357619Y-74572904D01*
X130452857Y-74525285D01*
X130548095Y-74525285D01*
X130690952Y-74572904D01*
X131262380Y-75144333D01*
X131262380Y-74525285D01*
X130262380Y-76596714D02*
X130262380Y-75977666D01*
X130643333Y-76311000D01*
X130643333Y-76168142D01*
X130690952Y-76072904D01*
X130738571Y-76025285D01*
X130833809Y-75977666D01*
X131071904Y-75977666D01*
X131167142Y-76025285D01*
X131214761Y-76072904D01*
X131262380Y-76168142D01*
X131262380Y-76453857D01*
X131214761Y-76549095D01*
X131167142Y-76596714D01*
X131262380Y-75501476D02*
X131262380Y-75311000D01*
X131214761Y-75215761D01*
X131167142Y-75168142D01*
X131024285Y-75072904D01*
X130833809Y-75025285D01*
X130452857Y-75025285D01*
X130357619Y-75072904D01*
X130310000Y-75120523D01*
X130262380Y-75215761D01*
X130262380Y-75406238D01*
X130310000Y-75501476D01*
X130357619Y-75549095D01*
X130452857Y-75596714D01*
X130690952Y-75596714D01*
X130786190Y-75549095D01*
X130833809Y-75501476D01*
X130881428Y-75406238D01*
X130881428Y-75215761D01*
X130833809Y-75120523D01*
X130786190Y-75072904D01*
X130690952Y-75025285D01*
X130262380Y-74406238D02*
X130262380Y-74311000D01*
X130310000Y-74215761D01*
X130357619Y-74168142D01*
X130452857Y-74120523D01*
X130643333Y-74072904D01*
X130881428Y-74072904D01*
X131071904Y-74120523D01*
X131167142Y-74168142D01*
X131214761Y-74215761D01*
X131262380Y-74311000D01*
X131262380Y-74406238D01*
X131214761Y-74501476D01*
X131167142Y-74549095D01*
X131071904Y-74596714D01*
X130881428Y-74644333D01*
X130643333Y-74644333D01*
X130452857Y-74596714D01*
X130357619Y-74549095D01*
X130310000Y-74501476D01*
X130262380Y-74406238D01*
X142416666Y-85022380D02*
X142416666Y-85736666D01*
X142369047Y-85879523D01*
X142273809Y-85974761D01*
X142130952Y-86022380D01*
X142035714Y-86022380D01*
X143416666Y-86022380D02*
X142845238Y-86022380D01*
X143130952Y-86022380D02*
X143130952Y-85022380D01*
X143035714Y-85165238D01*
X142940476Y-85260476D01*
X142845238Y-85308095D01*
X145311904Y-81732380D02*
X145311904Y-80732380D01*
X145883333Y-81732380D02*
X145454761Y-81160952D01*
X145883333Y-80732380D02*
X145311904Y-81303809D01*
X146835714Y-81732380D02*
X146264285Y-81732380D01*
X146550000Y-81732380D02*
X146550000Y-80732380D01*
X146454761Y-80875238D01*
X146359523Y-80970476D01*
X146264285Y-81018095D01*
X142342380Y-68048095D02*
X141342380Y-68048095D01*
X141342380Y-67810000D01*
X141390000Y-67667142D01*
X141485238Y-67571904D01*
X141580476Y-67524285D01*
X141770952Y-67476666D01*
X141913809Y-67476666D01*
X142104285Y-67524285D01*
X142199523Y-67571904D01*
X142294761Y-67667142D01*
X142342380Y-67810000D01*
X142342380Y-68048095D01*
X141437619Y-67095714D02*
X141390000Y-67048095D01*
X141342380Y-66952857D01*
X141342380Y-66714761D01*
X141390000Y-66619523D01*
X141437619Y-66571904D01*
X141532857Y-66524285D01*
X141628095Y-66524285D01*
X141770952Y-66571904D01*
X142342380Y-67143333D01*
X142342380Y-66524285D01*
X149962380Y-68048095D02*
X148962380Y-68048095D01*
X148962380Y-67810000D01*
X149010000Y-67667142D01*
X149105238Y-67571904D01*
X149200476Y-67524285D01*
X149390952Y-67476666D01*
X149533809Y-67476666D01*
X149724285Y-67524285D01*
X149819523Y-67571904D01*
X149914761Y-67667142D01*
X149962380Y-67810000D01*
X149962380Y-68048095D01*
X149962380Y-66524285D02*
X149962380Y-67095714D01*
X149962380Y-66810000D02*
X148962380Y-66810000D01*
X149105238Y-66905238D01*
X149200476Y-67000476D01*
X149248095Y-67095714D01*
M02*
