G04 #@! TF.GenerationSoftware,KiCad,Pcbnew,(2017-12-24 revision 570866557)-makepkg*
G04 #@! TF.CreationDate,2018-01-07T21:48:38-05:00*
G04 #@! TF.ProjectId,HeadboardDriver,48656164626F6172644472697665722E,rev?*
G04 #@! TF.SameCoordinates,Original*
G04 #@! TF.FileFunction,Copper,L2,Bot,Signal*
G04 #@! TF.FilePolarity,Positive*
%FSLAX46Y46*%
G04 Gerber Fmt 4.6, Leading zero omitted, Abs format (unit mm)*
G04 Created by KiCad (PCBNEW (2017-12-24 revision 570866557)-makepkg) date Sun Jan  7 21:48:38 2018*
%MOMM*%
%LPD*%
G01*
G04 APERTURE LIST*
%ADD10R,1.295400X1.295400*%
%ADD11C,1.295400*%
%ADD12C,1.524000*%
%ADD13R,3.500000X3.500000*%
%ADD14R,2.200000X2.200000*%
%ADD15O,2.200000X2.200000*%
%ADD16R,1.600000X1.600000*%
%ADD17O,1.600000X1.600000*%
%ADD18C,1.270000*%
%ADD19C,1.600000*%
%ADD20R,1.520000X1.520000*%
%ADD21C,1.520000*%
%ADD22C,2.000000*%
%ADD23C,0.500000*%
%ADD24C,0.700000*%
G04 APERTURE END LIST*
D10*
X145796000Y-109220000D03*
D11*
X148336000Y-109220000D03*
X150876000Y-109220000D03*
X153416000Y-109220000D03*
X155956000Y-109220000D03*
X158496000Y-109220000D03*
X161036000Y-109220000D03*
X163576000Y-109220000D03*
X163576000Y-101600000D03*
X161036000Y-101600000D03*
X158496000Y-101600000D03*
X155956000Y-101600000D03*
X153416000Y-101600000D03*
X150876000Y-101600000D03*
X148336000Y-101600000D03*
X145796000Y-101600000D03*
D12*
X182880000Y-73152000D03*
X180340000Y-73152000D03*
X177800000Y-73152000D03*
X175260000Y-73152000D03*
X172720000Y-73152000D03*
X170180000Y-73152000D03*
X167640000Y-73152000D03*
D13*
X157480000Y-74168000D03*
X151480000Y-74168000D03*
X154480000Y-78868000D03*
D14*
X162052000Y-84328000D03*
D15*
X162052000Y-74168000D03*
D16*
X150876000Y-89916000D03*
D17*
X158496000Y-97536000D03*
X150876000Y-92456000D03*
X158496000Y-94996000D03*
X150876000Y-94996000D03*
X158496000Y-92456000D03*
X150876000Y-97536000D03*
X158496000Y-89916000D03*
D18*
X167640000Y-90957400D03*
X167640000Y-85877400D03*
X167640000Y-83337400D03*
X167640000Y-80797400D03*
X172720000Y-80797400D03*
X172720000Y-83337400D03*
X172720000Y-85877400D03*
X172720000Y-90957400D03*
X182880000Y-90957400D03*
X182880000Y-85877400D03*
X182880000Y-83337400D03*
X182880000Y-80797400D03*
X177800000Y-80797400D03*
X177800000Y-83337400D03*
X177800000Y-85877400D03*
X177800000Y-90957400D03*
D17*
X158496000Y-83820000D03*
D19*
X148336000Y-83820000D03*
X146812000Y-98044000D03*
D17*
X146812000Y-87884000D03*
D20*
X167640000Y-93980000D03*
D21*
X167640000Y-99060000D03*
X167640000Y-96520000D03*
X177800000Y-96520000D03*
X177800000Y-99060000D03*
D20*
X177800000Y-93980000D03*
D22*
X172720000Y-85877400D02*
X173710600Y-85877400D01*
X177800000Y-75692000D02*
X177800000Y-73152000D01*
X175260000Y-78232000D02*
X177800000Y-75692000D01*
X175260000Y-84328000D02*
X175260000Y-78232000D01*
X173710600Y-85877400D02*
X175260000Y-84328000D01*
D23*
X177800000Y-73660000D02*
X177800000Y-73152000D01*
D22*
X167640000Y-99060000D02*
X166116000Y-99060000D01*
X165100000Y-75692000D02*
X167640000Y-73152000D01*
X165100000Y-86868000D02*
X165100000Y-75692000D01*
X162052000Y-89916000D02*
X165100000Y-86868000D01*
X162052000Y-94996000D02*
X162052000Y-89916000D01*
X166116000Y-99060000D02*
X162052000Y-94996000D01*
D24*
X151480000Y-74168000D02*
X151480000Y-89312000D01*
X151480000Y-89312000D02*
X150876000Y-89916000D01*
X163576000Y-109220000D02*
X167640000Y-105156000D01*
X167640000Y-105156000D02*
X167640000Y-99060000D01*
D22*
X167640000Y-99060000D02*
X177800000Y-99060000D01*
X177800000Y-85877400D02*
X177774600Y-85877400D01*
X177774600Y-85877400D02*
X175260000Y-88392000D01*
X175260000Y-88392000D02*
X170180000Y-88392000D01*
X170180000Y-88392000D02*
X170180000Y-85852000D01*
X170180000Y-85852000D02*
X170180000Y-83312000D01*
X170180000Y-83312000D02*
X170154600Y-83337400D01*
X170154600Y-83337400D02*
X167640000Y-83337400D01*
D24*
X150876000Y-94996000D02*
X150368000Y-94996000D01*
X150368000Y-94996000D02*
X148844000Y-96520000D01*
X148844000Y-96520000D02*
X148844000Y-98552000D01*
X148844000Y-98552000D02*
X147320000Y-100076000D01*
X147320000Y-100076000D02*
X144780000Y-100076000D01*
X144780000Y-100076000D02*
X143764000Y-101092000D01*
X143764000Y-101092000D02*
X143764000Y-103124000D01*
X143764000Y-103124000D02*
X146304000Y-105664000D01*
X146304000Y-105664000D02*
X152400000Y-105664000D01*
X152400000Y-105664000D02*
X155956000Y-109220000D01*
X158496000Y-89916000D02*
X150876000Y-97536000D01*
X150876000Y-92456000D02*
X152400000Y-92456000D01*
X158496000Y-86360000D02*
X158496000Y-83820000D01*
X152400000Y-92456000D02*
X158496000Y-86360000D01*
M02*
