G04 #@! TF.GenerationSoftware,KiCad,Pcbnew,(5.0.0-rc2-dev-720-g9704891c8)*
G04 #@! TF.CreationDate,2018-06-11T17:06:42-04:00*
G04 #@! TF.ProjectId,HeadboardDriver,48656164626F6172644472697665722E,rev?*
G04 #@! TF.SameCoordinates,Original*
G04 #@! TF.FileFunction,Soldermask,Top*
G04 #@! TF.FilePolarity,Negative*
%FSLAX46Y46*%
G04 Gerber Fmt 4.6, Leading zero omitted, Abs format (unit mm)*
G04 Created by KiCad (PCBNEW (5.0.0-rc2-dev-720-g9704891c8)) date Mon Jun 11 17:06:42 2018*
%MOMM*%
%LPD*%
G01*
G04 APERTURE LIST*
%ADD10R,1.695400X1.695400*%
%ADD11C,1.695400*%
%ADD12C,1.924000*%
%ADD13R,3.900000X3.900000*%
%ADD14R,1.900000X1.650000*%
%ADD15R,2.600000X2.600000*%
%ADD16O,2.600000X2.600000*%
%ADD17R,2.000000X2.000000*%
%ADD18O,2.000000X2.000000*%
%ADD19C,1.670000*%
%ADD20C,2.000000*%
%ADD21R,1.920000X1.920000*%
%ADD22C,1.920000*%
G04 APERTURE END LIST*
D10*
X145796000Y-109220000D03*
D11*
X148336000Y-109220000D03*
X150876000Y-109220000D03*
X153416000Y-109220000D03*
X155956000Y-109220000D03*
X158496000Y-109220000D03*
X161036000Y-109220000D03*
X163576000Y-109220000D03*
X163576000Y-101600000D03*
X161036000Y-101600000D03*
X158496000Y-101600000D03*
X155956000Y-101600000D03*
X153416000Y-101600000D03*
X150876000Y-101600000D03*
X148336000Y-101600000D03*
X145796000Y-101600000D03*
D12*
X182880000Y-73152000D03*
X180340000Y-73152000D03*
X177800000Y-73152000D03*
X175260000Y-73152000D03*
X172720000Y-73152000D03*
X170180000Y-73152000D03*
X167640000Y-73152000D03*
D13*
X157480000Y-74168000D03*
X151480000Y-74168000D03*
X154480000Y-78868000D03*
D14*
X163810000Y-94996000D03*
X161310000Y-94996000D03*
X161310000Y-97536000D03*
X163810000Y-97536000D03*
D15*
X162052000Y-84328000D03*
D16*
X162052000Y-74168000D03*
D17*
X150876000Y-89916000D03*
D18*
X158496000Y-97536000D03*
X150876000Y-92456000D03*
X158496000Y-94996000D03*
X150876000Y-94996000D03*
X158496000Y-92456000D03*
X150876000Y-97536000D03*
X158496000Y-89916000D03*
D19*
X167640000Y-90957400D03*
X167640000Y-85877400D03*
X167640000Y-83337400D03*
X167640000Y-80797400D03*
X172720000Y-80797400D03*
X172720000Y-83337400D03*
X172720000Y-85877400D03*
X172720000Y-90957400D03*
X182880000Y-90957400D03*
X182880000Y-85877400D03*
X182880000Y-83337400D03*
X182880000Y-80797400D03*
X177800000Y-80797400D03*
X177800000Y-83337400D03*
X177800000Y-85877400D03*
X177800000Y-90957400D03*
D18*
X158496000Y-83820000D03*
D20*
X148336000Y-83820000D03*
X146812000Y-98044000D03*
D18*
X146812000Y-87884000D03*
D21*
X167640000Y-93980000D03*
D22*
X167640000Y-99060000D03*
X167640000Y-96520000D03*
X177800000Y-96520000D03*
X177800000Y-99060000D03*
D21*
X177800000Y-93980000D03*
M02*
