M48
;DRILL file {KiCad (5.0.0-rc2-dev-720-g9704891c8)} date Mon Jun 11 17:06:46 2018
;FORMAT={-:-/ absolute / inch / decimal}
FMAT,2
INCH,TZ
T1C0.0300
T2C0.0310
T3C0.0315
T4C0.0394
T5C0.0400
T6C0.0433
%
G90
G05
M72
T1
X6.6Y-3.181
X6.6Y-3.281
X6.6Y-3.381
X6.6Y-3.581
X6.8Y-3.181
X6.8Y-3.281
X6.8Y-3.381
X6.8Y-3.581
X7.Y-3.181
X7.Y-3.281
X7.Y-3.381
X7.Y-3.581
X7.2Y-3.181
X7.2Y-3.281
X7.2Y-3.381
X7.2Y-3.581
T2
X5.74Y-4.
X5.74Y-4.3
X5.84Y-4.
X5.84Y-4.3
X5.94Y-4.
X5.94Y-4.3
X6.04Y-4.
X6.04Y-4.3
X6.14Y-4.
X6.14Y-4.3
X6.24Y-4.
X6.24Y-4.3
X6.34Y-4.
X6.34Y-4.3
X6.44Y-4.
X6.44Y-4.3
T3
X7.Y-3.7
X7.Y-3.8
X7.Y-3.9
X5.94Y-3.54
X5.94Y-3.64
X5.94Y-3.74
X5.94Y-3.84
X6.24Y-3.54
X6.24Y-3.64
X6.24Y-3.74
X6.24Y-3.84
X5.78Y-3.46
X5.78Y-3.86
X5.84Y-3.3
X6.24Y-3.3
X6.6Y-3.7
X6.6Y-3.8
X6.6Y-3.9
T5
X6.6Y-2.88
X6.7Y-2.88
X6.8Y-2.88
X6.9Y-2.88
X7.Y-2.88
X7.1Y-2.88
X7.2Y-2.88
T6
X6.38Y-2.92
X6.38Y-3.32
T4
X5.9638Y-2.8806G85X5.9638Y-2.9594
G05
X6.0425Y-3.105G85X6.1213Y-3.105
G05
X6.2Y-2.8806G85X6.2Y-2.9594
G05
T0
M30
