M48
;DRILL file {KiCad (2017-12-24 revision 570866557)-makepkg} date Sun Jan  7 21:50:16 2018
;FORMAT={3:3/ absolute / metric / suppress leading zeros}
FMAT,2
METRIC,TZ
T1C0.762
T2C0.787
T3C0.800
T4C1.000
T5C1.016
T6C1.100
%
G90
G05
M71
T1
X167640Y-80797
X167640Y-83337
X167640Y-85877
X167640Y-90957
X172720Y-80797
X172720Y-83337
X172720Y-85877
X172720Y-90957
X177800Y-80797
X177800Y-83337
X177800Y-85877
X177800Y-90957
X182880Y-80797
X182880Y-83337
X182880Y-85877
X182880Y-90957
T2
X145796Y-101600
X145796Y-109220
X148336Y-101600
X148336Y-109220
X150876Y-101600
X150876Y-109220
X153416Y-101600
X153416Y-109220
X155956Y-101600
X155956Y-109220
X158496Y-101600
X158496Y-109220
X161036Y-101600
X161036Y-109220
X163576Y-101600
X163576Y-109220
T3
X146812Y-87884
X146812Y-98044
X177800Y-93980
X177800Y-96520
X177800Y-99060
X167640Y-93980
X167640Y-96520
X167640Y-99060
X148336Y-83820
X158496Y-83820
X150876Y-89916
X150876Y-92456
X150876Y-94996
X150876Y-97536
X158496Y-89916
X158496Y-92456
X158496Y-94996
X158496Y-97536
T5
X167640Y-73152
X170180Y-73152
X172720Y-73152
X175260Y-73152
X177800Y-73152
X180340Y-73152
X182880Y-73152
T6
X162052Y-74168
X162052Y-84328
T4
X151480Y-73168G85X151480Y-75168
G05
X153480Y-78868G85X155480Y-78868
G05
X157480Y-73168G85X157480Y-75168
G05
T0
M30
